# xmcd
# 
# Track frame offsets:
#     150
#     24026
#     98986
#     114740
#     135420
#     148942
#     168454
#     181997
#     198187
#     210096
# 
# Disc length: 3094
# 
# Revision: 7
# Processed by: cddbd v1.5.2PL0 Copyright (c) Steve Scherf et al.
# Submitted via: fre:ac v1.0.31
# 
DISCID=800c140a
DTITLE=George Harrison and friends - The Concert for Bangladesh [CD1]
DYEAR=1971
DGENRE=Rock
TTITLE0=Introduction By George Harrison and Ravi Shankar
TTITLE1=Bangla Dhun
TTITLE2=Wah-Wah
TTITLE3=My Sweet Lord
TTITLE4=Awaiting On You All
TTITLE5=That's the Way God Planned It
TTITLE6=It Don't Come Easy
TTITLE7=Beware of Darkness
TTITLE8=Band Introduction
TTITLE9=While My Guitar Gently Weeps
EXTD=
EXTT0=
EXTT1=
EXTT2=
EXTT3=
EXTT4=
EXTT5=
EXTT6=
EXTT7=
EXTT8=
EXTT9=
PLAYORDER=
